<svg xmlns="http://www.w3.org/2000/svg" width="28" viewBox="0 0 48 48"><path fill="#F9C80E" fill-rule="evenodd" d="M48 23.977C48 37.248 37.248 48 23.977 48 10.752 48 0 37.248 0 23.977 0 10.752 10.752 0 23.977 0 37.248 0 48 10.752 48 23.977z" clip-rule="evenodd"/><path fill="#202030" d="M17.008 27.632a4.092 4.092 0 01-4.087-4.087v-1.993h1v1.993a3.09 3.09 0 003.087 3.087 3.09 3.09 0 003.087-3.087v-1.993h1v1.993a4.09 4.09 0 01-4.087 4.087z"/><path fill="#202030" d="M19.569 28.223h-1v-.796a4.253 4.253 0 01-3.121 0v.796h-1v-2.559l.778.521a3.252 3.252 0 003.564 0l.778-.521v2.559zm1.028-5.702a.502.502 0 01-.39-.187l-1.116-1.386a.502.502 0 01-.11-.313v-.325h-3.945v.324a.502.502 0 01-.11.313l-1.113 1.386a.5.5 0 01-.873-.181l-.615-2.247a1.835 1.835 0 011.328-2.186 2.107 2.107 0 012.421-1.687l3.886.648c.572.095 1.07.409 1.404.883.334.474.46 1.05.356 1.62l-.635 2.943a.502.502 0 01-.488.395zm-4.87-5.518a1.112 1.112 0 00-1.115 1.115c0 .276-.224.543-.5.543a.829.829 0 00-.648.31.828.828 0 00-.167.698l.35 1.275.39-.485v-.649a.5.5 0 01.5-.5h4.945a.5.5 0 01.5.5v.648l.349.433.411-1.903c.052-.289-.016-.597-.194-.85s-.444-.421-.75-.472l-3.886-.648a1.173 1.173 0 00-.185-.015zM9.5 37a.5.5 0 01-.5-.5v-3.387c0-1.001.534-1.944 1.393-2.459l2.797-1.678a.5.5 0 01.515.857l-2.797 1.678c-.56.336-.908.949-.908 1.602V36.5a.5.5 0 01-.5.5zm15.01 0a.5.5 0 01-.5-.5v-3.387c0-.652-.348-1.267-.907-1.603l-2.797-1.678a.5.5 0 11.515-.857l2.797 1.678a2.884 2.884 0 011.393 2.46V36.5a.501.501 0 01-.501.5z"/><path fill="#202030" d="M12.5 37a.5.5 0 01-.5-.5v-1.313c0-.467-.174-.915-.489-1.26l-.494-.54a.5.5 0 01.739-.675l.494.541c.484.53.75 1.217.75 1.935V36.5a.5.5 0 01-.5.5zm9.01 0a.5.5 0 01-.5-.5v-1.313c0-.717.267-1.404.75-1.934l.494-.541a.5.5 0 11.739.675l-.494.541a1.864 1.864 0 00-.489 1.26V36.5a.5.5 0 01-.5.5zm-6.473-5.123l-.028-.001a.502.502 0 01-.363-.187l-1.579-1.974a.5.5 0 01.019-.647l1.066-1.185a.498.498 0 01.586-.117l2.487 1.185a.502.502 0 01.139.804l-1.974 1.974a.492.492 0 01-.353.148zm-.924-2.454l.965 1.206 1.078-1.078-1.511-.72-.532.592z"/><path fill="#202030" d="M18.984 31.877a.501.501 0 01-.354-.146l-1.974-1.974a.498.498 0 01.139-.804l2.487-1.185a.497.497 0 01.586.117l1.066 1.185a.5.5 0 01.019.647l-1.579 1.974a.502.502 0 01-.363.187l-.027-.001zm-1.12-2.326l1.078 1.078.965-1.206-.532-.592-1.511.72z"/><path fill="#202030" d="M17 37a.5.5 0 01-.5-.5v-7.123a.5.5 0 011 0V36.5a.5.5 0 01-.5.5zm16.5-18h-1a.5.5 0 010-1h1a.5.5 0 010 1zm-3 0h-4a.5.5 0 010-1h4a.5.5 0 010 1zm5-2h-9a.5.5 0 010-1h9a.5.5 0 010 1zm0-2h-6a.5.5 0 010-1h6a.5.5 0 010 1zm-8 0h-1a.5.5 0 010-1h1a.5.5 0 010 1z"/><path fill="#202030" d="M26.5 25a.5.5 0 01-.5-.5V22h-1.5c-.827 0-1.5-.673-1.5-1.5v-8c0-.827.673-1.5 1.5-1.5h13c.827 0 1.5.673 1.5 1.5v8c0 .827-.673 1.5-1.5 1.5h-7.793l-2.854 2.854A.5.5 0 0126.5 25zm-2-13a.5.5 0 00-.5.5v8a.5.5 0 00.5.5h2a.5.5 0 01.5.5v1.793l2.146-2.146A.5.5 0 0129.5 21h8a.5.5 0 00.5-.5v-8a.5.5 0 00-.5-.5h-13z"/></svg>