<svg xmlns="http://www.w3.org/2000/svg" viewBox="0 0 64 64"><circle cx="32" cy="32" r="32" fill="#2494c3"/><path fill="#fdc97c" d="M48.4 21v24.7c0 .4-.2.9-.6 1.1-.2.2-.4.2-.7.2H15.6c-.2 0-.4 0-.5-.1-.5-.2-.8-.7-.8-1.2V21c0-.7.6-1.3 1.3-1.3h15.7c.5 0 .9-.3 1.2-.7l.7-1.3c.2-.4.7-.7 1.2-.7H41c.7 0 1.3.6 1.3 1.3 0 .7.6 1.4 1.3 1.4H47c.8-.1 1.4.5 1.4 1.3z"/><path fill="#dadde0" d="M16.3 24.6h30.4v13.3H16.3z"/><path fill="#eaeaea" d="M16.3 25.3h30.4v12.6H16.3z"/><path fill="#ffe5ac" d="M52 28.3l-1.4 7.4H12.2l-.2-.9c-.1-.2-.1-.5 0-.7.1-.7.6-1.2 1.2-1.2h14.2c.5 0 .9-.3 1.2-.7L32 27c.3-.5.8-.8 1.3-.8h17.4c.7 0 1.2.6 1.3 1.4v.7z"/><path fill="#fad784" d="M52 28.8l-3.2 16.9c-.1.5-.4 1-.9 1.2-.3.1-.5.1-.8.1H15.6c-.2 0-.4 0-.5-.1-.5-.2-1-.7-1.1-1.3l-2-10.4v-.7c.1-.7.6-1.2 1.2-1.2h14.2c.5 0 .9-.3 1.2-.7l3.4-5.3c.3-.5.8-.8 1.3-.8h17.4c.7 0 1.2.6 1.3 1.4v.9z"/></svg>