<svg width="30" height="30" viewBox="0 0 30 30" fill="none" xmlns="http://www.w3.org/2000/svg">
<path d="M15 30C23.2843 30 30 23.2843 30 15C30 6.71573 23.2843 0 15 0C6.71573 0 0 6.71573 0 15C0 23.2843 6.71573 30 15 30Z" fill="#F9C80E"/>
<path d="M22.6879 9.84375V21.4219C22.6879 21.6094 22.5941 21.8438 22.4066 21.9375C22.3129 22.0312 22.2191 22.0312 22.0785 22.0312H7.31287C7.21912 22.0312 7.12537 22.0313 7.07849 21.9844C6.84412 21.8906 6.70349 21.6562 6.70349 21.4219V9.84375C6.70349 9.51562 6.98474 9.23438 7.31287 9.23438H14.6722C14.9066 9.23438 15.0941 9.09375 15.2347 8.90625L15.5629 8.29688C15.6566 8.10938 15.891 7.96875 16.1254 7.96875H19.2191C19.5472 7.96875 19.8285 8.25 19.8285 8.57812C19.8285 8.90625 20.1097 9.23438 20.4379 9.23438H22.0316C22.4066 9.1875 22.6879 9.46875 22.6879 9.84375Z" fill="#202030"/>
<path d="M7.64099 11.5312H21.891V17.7656H7.64099V11.5312Z" fill="#F9C80E"/>
<path d="M7.64099 11.8594H21.891V17.7656H7.64099V11.8594Z" fill="#F9C80E"/>
<path d="M24.3754 13.2656L23.7191 16.7344H5.71912L5.62537 16.3125C5.57849 16.2187 5.57849 16.0781 5.62537 15.9844C5.67224 15.6562 5.90662 15.4219 6.18787 15.4219H12.8441C13.0785 15.4219 13.266 15.2812 13.4066 15.0938L15.0004 12.6562C15.141 12.4219 15.3754 12.2812 15.6097 12.2812H23.766C24.0941 12.2812 24.3285 12.5625 24.3754 12.9375V13.2656Z" fill="#F9C80E"/>
<path d="M24.375 13.5L22.875 21.4219C22.8281 21.6562 22.6875 21.8906 22.4531 21.9844C22.3125 22.0313 22.2188 22.0312 22.0781 22.0312H7.3125C7.21875 22.0312 7.125 22.0313 7.07813 21.9844C6.84375 21.8906 6.60938 21.6562 6.5625 21.375L5.625 16.5V16.1719C5.67188 15.8438 5.90625 15.6094 6.1875 15.6094H12.8438C13.0781 15.6094 13.2656 15.4687 13.4062 15.2812L15 12.7969C15.1406 12.5625 15.375 12.4219 15.6094 12.4219H23.7656C24.0938 12.4219 24.3281 12.7031 24.375 13.0781V13.5Z" fill="#202030"/>
</svg>
