<svg width="28" height="30" viewBox="0 0 28 30" fill="none" xmlns="http://www.w3.org/2000/svg">
<g clip-path="url(#clip0)">
<path d="M23.5732 4.42149C22.3098 3.0295 20.8089 1.92512 19.1566 1.1716C17.5043 0.418079 15.733 0.0302124 13.9441 0.0302124C12.1552 0.0302124 10.3839 0.418079 8.73159 1.1716C7.07928 1.92512 5.57842 3.0295 4.31496 4.42149C-0.943248 10.2012 -0.99389 19.5703 4.16251 25.4191L4.26166 25.5299L4.27019 25.5393L4.31283 25.5867L4.41252 25.6963C5.54407 26.917 6.86103 27.9108 8.30393 28.633L8.442 28.701C8.54009 28.7484 8.63924 28.7953 8.73839 28.8404L8.89831 28.9113L9.05823 28.9805C9.17231 29.0289 9.28727 29.0754 9.40313 29.1199H9.40633C9.52929 29.168 9.65367 29.2137 9.77948 29.257L9.97298 29.3232C10.1532 29.3838 10.3348 29.4398 10.5178 29.4914L10.7012 29.5418C10.7992 29.5688 10.8973 29.5934 10.9959 29.6168C11.0946 29.6402 11.1937 29.6637 11.2929 29.6848C11.4172 29.7117 11.5416 29.7365 11.666 29.7592C11.791 29.7826 11.9162 29.8037 12.0418 29.8225L12.1932 29.8447C12.2412 29.8518 12.2892 29.8582 12.3377 29.8641H12.351L12.4992 29.8822L12.6485 29.8986L12.8009 29.9133C12.9027 29.9227 13.0046 29.9303 13.1069 29.9373L13.2956 29.9484H13.3137C13.375 29.9514 13.4369 29.9543 13.4987 29.9561H13.5499C13.5867 29.9561 13.6229 29.9561 13.6597 29.959H13.6858C13.7711 29.959 13.8569 29.9619 13.9428 29.9619H13.9481C14.1702 29.9619 14.3916 29.9559 14.6123 29.9438C14.7157 29.9385 14.8186 29.9315 14.9215 29.9238H14.9508C15.0041 29.9191 15.0574 29.915 15.1107 29.9098L15.2754 29.8934C15.3852 29.8816 15.4949 29.8686 15.6043 29.8541C15.7136 29.8395 15.8224 29.8231 15.9311 29.8061C16.0399 29.7891 16.1486 29.7697 16.2563 29.7475C16.3096 29.7375 16.3629 29.727 16.4162 29.7158L16.5761 29.6824L16.736 29.6467L16.9088 29.6057L17.0415 29.5723C17.0543 29.5693 17.0676 29.5664 17.0804 29.5623H17.0863C17.1295 29.5518 17.1726 29.54 17.2153 29.5283C17.2686 29.5143 17.3219 29.4996 17.3752 29.4844L17.5351 29.4381C17.6417 29.4065 17.7464 29.3736 17.8491 29.3397C17.9024 29.3227 17.9557 29.3051 18.0053 29.2869C18.0549 29.2688 18.1092 29.2512 18.1609 29.2324C18.2127 29.2137 18.2644 29.1955 18.3161 29.1738C18.4188 29.1348 18.5213 29.0957 18.6237 29.0566L18.7766 28.9939C18.83 28.9729 18.8779 28.9512 18.9286 28.9295C19.0299 28.8856 19.1301 28.8404 19.2308 28.7941C19.306 28.7596 19.3806 28.7238 19.4552 28.6875C19.5299 28.6512 19.6034 28.6143 19.6775 28.5762L19.8113 28.507C19.8534 28.4854 19.895 28.4631 19.9366 28.4402C20.0166 28.3969 20.0964 28.3527 20.176 28.3078C21.3788 27.6226 22.4824 26.7449 23.4506 25.7033L23.4757 25.6811C23.5119 25.6482 23.5428 25.6143 23.57 25.5844C23.6164 25.5334 23.6628 25.4818 23.7081 25.4303L23.7145 25.4238L23.7321 25.4033C26.2186 22.5832 27.5957 18.8008 27.5657 14.8737C27.5358 10.9467 26.1013 7.1902 23.5722 4.41622L23.5732 4.42149ZM9.33543 6.38966C10.4026 5.21651 11.8069 4.48639 13.3089 4.32371C14.811 4.16103 16.3178 4.57586 17.5728 5.4975C18.8278 6.41914 19.7532 7.79058 20.1914 9.37813C20.6296 10.9657 20.5534 12.6711 19.9758 14.2038C19.3982 15.7366 18.355 17.0018 17.0239 17.7838C15.6929 18.5659 14.1562 18.8164 12.6759 18.4928C11.1956 18.1691 9.86319 17.2913 8.9057 16.0089C7.94821 14.7265 7.42488 13.1188 7.4249 11.4598C7.42246 10.5178 7.59006 9.58461 7.91801 8.71431C8.24596 7.84401 8.72773 7.05387 9.33543 6.38966ZM5.24357 25.3482C5.28089 25.3002 5.31874 25.2522 5.35659 25.2047L5.36565 25.1953L5.36831 25.1924C5.38164 25.1754 5.3955 25.1578 5.40936 25.1414L5.49305 25.0395C5.5213 25.0055 5.54956 24.9715 5.57834 24.9381L5.5922 24.9217L5.59647 24.9164C5.62472 24.8824 5.65297 24.8496 5.68176 24.8168C5.72494 24.767 5.76865 24.7172 5.81289 24.6686C5.84008 24.6381 5.8662 24.61 5.89552 24.5783C5.92484 24.5467 5.9451 24.5232 5.97015 24.4975L6.00107 24.4641C6.02825 24.4354 6.05437 24.4055 6.08263 24.3791L6.09382 24.3674L6.09755 24.3633L6.11408 24.3463C6.14393 24.3147 6.17378 24.2842 6.20417 24.2543L6.26067 24.1957L6.2724 24.1846C6.30065 24.1553 6.32997 24.126 6.35876 24.099L6.42433 24.0357C6.45418 24.0065 6.48456 23.9772 6.51495 23.9502L6.59171 23.8781C6.61783 23.8535 6.64502 23.8289 6.67167 23.8049C6.69832 23.7809 6.73137 23.751 6.76176 23.7246C6.78415 23.7041 6.80654 23.6842 6.82946 23.666L6.83906 23.6578L6.85238 23.6461C6.87797 23.6232 6.90569 23.601 6.93021 23.5787L6.93607 23.574C6.95669 23.5557 6.97748 23.5381 6.99844 23.5213L7.0091 23.5119L7.07041 23.4609H7.07361L7.08 23.4557C7.11838 23.4234 7.15677 23.3918 7.19568 23.3613C7.20581 23.3525 7.21647 23.3438 7.22713 23.3361C7.26711 23.3033 7.30709 23.2717 7.3476 23.2406L7.4169 23.1873L7.42597 23.1809L7.51446 23.1135L7.52459 23.1053L7.53738 23.0959L7.56297 23.0777C7.60721 23.0443 7.65146 23.0121 7.69623 22.9799C7.74101 22.9477 7.78206 22.9184 7.82577 22.8885C7.85509 22.868 7.88441 22.8475 7.91426 22.8299L7.93025 22.8188L8.06139 22.7303C8.1147 22.694 8.17227 22.6576 8.22824 22.6225L8.24743 22.6102H8.25063C8.28208 22.5897 8.31406 22.5703 8.34605 22.5516L8.36684 22.5393L8.38549 22.5275C8.41002 22.5123 8.43454 22.4971 8.45959 22.4824C8.49691 22.4596 8.53422 22.4373 8.57207 22.4156L8.62538 22.3857L8.63284 22.3816L8.65949 22.3664L8.67655 22.3565C8.71706 22.3324 8.75864 22.3102 8.79916 22.2867L8.94362 22.2082L9.01772 22.1684H9.02252L9.03584 22.1613L9.05503 22.1514C9.09768 22.1285 9.14086 22.1068 9.18404 22.0852L9.21282 22.0705C9.26613 22.043 9.32263 22.016 9.37807 21.9897L9.41379 21.9721L9.54599 21.91H9.55025L9.70218 21.842C9.71243 21.8367 9.72293 21.832 9.73363 21.8279H9.73683L9.80293 21.7998L9.87223 21.7705L9.933 21.7447C9.98631 21.7236 10.0364 21.7025 10.0881 21.6826C10.0999 21.6772 10.1116 21.6725 10.1233 21.6686C10.1686 21.6504 10.2145 21.6328 10.2603 21.6164C10.287 21.6059 10.3136 21.5959 10.3408 21.5865C10.3824 21.5707 10.4245 21.5555 10.4666 21.5414L10.5199 21.5227L10.5332 21.518L10.5423 21.515C10.5956 21.4981 10.6436 21.4805 10.6948 21.4641L13.8612 26.2037L17.2163 21.4688L17.2819 21.4904C17.3256 21.5045 17.3688 21.5197 17.412 21.5344L17.4696 21.5543L17.5762 21.5924L17.6082 21.6041L17.735 21.6522H17.7398L17.8219 21.6838L17.888 21.7107C17.9312 21.7277 17.9738 21.7453 18.017 21.7635C18.0751 21.7875 18.1327 21.8121 18.1903 21.8373L18.2159 21.8484L18.242 21.8602L18.2953 21.8836L18.3107 21.8906L18.3193 21.8947L18.3331 21.9006C18.3625 21.9129 18.3923 21.927 18.4211 21.941C18.4664 21.9615 18.5101 21.9832 18.5549 22.0049L18.5682 22.0113L18.5911 22.0225L18.6311 22.0418L18.6706 22.0617C18.6775 22.0652 18.685 22.0682 18.6919 22.0723L18.7756 22.1145L18.7921 22.1232C18.8065 22.1303 18.8209 22.1373 18.8353 22.1455H18.838C18.8838 22.1695 18.9307 22.1936 18.976 22.2188L19.0251 22.2457L19.0373 22.2522C19.0752 22.2727 19.113 22.2932 19.1503 22.3148L19.1706 22.3266H19.1743C19.1813 22.33 19.188 22.3339 19.1946 22.3383L19.2148 22.35L19.2319 22.3594L19.355 22.4309L19.3993 22.4572C19.4476 22.4857 19.4956 22.515 19.5432 22.5451C19.5511 22.5494 19.5587 22.5541 19.5661 22.5592C19.6194 22.5926 19.6727 22.6266 19.726 22.6606C19.7362 22.6664 19.7458 22.6734 19.7559 22.6799L19.8801 22.7619C19.91 22.7818 19.9398 22.8018 19.9697 22.8205L19.9809 22.8281L20.0523 22.8773L20.0597 22.8826H20.0645L20.0981 22.9061L20.121 22.9225C20.1658 22.9535 20.2111 22.9857 20.2554 23.0186C20.2682 23.0275 20.281 23.0369 20.2938 23.0467C20.3293 23.0729 20.3648 23.0998 20.4004 23.1275L20.4057 23.1316C20.4334 23.1523 20.4612 23.1734 20.4889 23.1949C20.5123 23.2125 20.5363 23.2307 20.5598 23.25C20.5832 23.2693 20.6157 23.2934 20.6435 23.3156C20.6712 23.3379 20.7138 23.3742 20.7501 23.4L20.7639 23.4117L20.8274 23.4639C20.8753 23.5031 20.9233 23.5436 20.9708 23.5846C21.0091 23.6168 21.047 23.6496 21.0848 23.683L21.1472 23.7381L21.2565 23.8371C21.2714 23.85 21.2863 23.8635 21.3007 23.8775C21.3327 23.9068 21.3647 23.9361 21.3962 23.9672L21.4047 23.9754H21.4074L21.4111 23.9789L21.4479 24.0135C21.4687 24.0328 21.4889 24.0533 21.5097 24.0721L21.5268 24.0891C21.5635 24.1236 21.6003 24.16 21.6366 24.1963C21.7247 24.2834 21.8112 24.3727 21.8962 24.4641C21.9246 24.4941 21.9529 24.5246 21.9809 24.5555C22.0156 24.5924 22.0497 24.6299 22.0838 24.668C22.1805 24.775 22.2752 24.8844 22.3679 24.9961C22.3738 25.0031 22.3797 25.0096 22.385 25.0166C22.4143 25.0518 22.4436 25.0869 22.4724 25.1227L22.4756 25.1262L22.506 25.1643C22.5519 25.2229 22.5966 25.2779 22.6414 25.3354C17.7798 30.2982 10.1206 30.3029 5.24357 25.3482Z" fill="#F9C80E"/>
<path d="M17.1874 21.4394L17.2178 21.4494L13.8627 26.1844L10.6957 21.4453C10.7207 21.4365 10.7463 21.4283 10.7719 21.4207L10.8487 21.3967C10.9073 21.3785 10.9654 21.3609 11.0241 21.3439L11.1077 21.3199L11.1189 21.317L11.2112 21.2912L11.3034 21.2666L11.3306 21.2596L11.4121 21.2385L11.4932 21.2185L11.5299 21.2092H11.5411L11.6163 21.1916L11.692 21.1746C11.7186 21.168 11.7453 21.1621 11.7719 21.157C11.8109 21.1482 11.8503 21.14 11.8892 21.1324L11.9548 21.1189L12.0817 21.0937L12.1765 21.0768L12.2714 21.0603L12.3407 21.0492L12.4106 21.0387H12.4479L12.5444 21.0252H12.578C12.6163 21.0199 12.6542 21.0146 12.6926 21.0105C12.7309 21.0064 12.7715 21.0006 12.8109 20.9965L12.8813 20.9766C12.9282 20.9713 12.9751 20.9672 13.022 20.9625L13.1675 20.9508L13.2832 20.9426H13.3232L13.4581 20.935H13.498L13.6158 20.9303H14.2475C14.2923 20.9303 14.3371 20.9303 14.3819 20.935H14.3995C14.4389 20.935 14.4789 20.9379 14.5183 20.9402H14.5221L14.6377 20.9478L14.6942 20.9514C14.7289 20.9514 14.763 20.956 14.7977 20.9596H14.8078C14.8414 20.9596 14.8755 20.9648 14.9091 20.9684H14.9139C14.9634 20.9725 15.0125 20.9777 15.0615 20.983H15.0818L15.1351 20.9889L15.2092 20.9976H15.23L15.3478 21.0123H15.36L15.3814 21.0152L15.4304 21.0223L15.5477 21.0398L15.6282 21.0527L15.6484 21.0562L15.7439 21.0727L15.9038 21.1019C15.9571 21.1119 16.0056 21.1219 16.0562 21.133C16.1223 21.1471 16.189 21.1611 16.2551 21.1764C16.3212 21.1916 16.3867 21.2074 16.4528 21.2238L16.6261 21.2689L16.6837 21.2848L16.7055 21.2906L16.7988 21.3176C16.8745 21.3393 16.9502 21.3621 17.0254 21.3855C17.0819 21.406 17.1346 21.4219 17.1874 21.4394Z" fill="white"/>
<path d="M23.7341 25.4086L23.5097 25.0992C21.9073 22.8966 19.7159 21.303 17.245 20.5436C16.1743 20.2082 15.0661 20.0393 13.9528 20.042H13.9139C12.8699 20.0455 11.8307 20.1972 10.822 20.4932C10.612 20.5541 10.4038 20.6211 10.1973 20.6941C7.90896 21.5094 5.88864 23.0449 4.38681 25.1104L4.16345 25.4186L4.2642 25.527L4.27273 25.5363L4.41933 25.6934C5.54962 26.9127 6.86444 27.9065 8.30488 28.6301L8.44295 28.698C8.54103 28.7455 8.64018 28.7924 8.73933 28.8375L8.89926 28.9084L9.05918 28.9775C9.17379 29.0256 9.2884 29.0725 9.40407 29.117H9.40727C9.53094 29.1645 9.65462 29.2102 9.78042 29.2541L9.97393 29.3203C10.1541 29.3801 10.3357 29.4361 10.5187 29.4885L10.7021 29.5389C10.8002 29.5646 10.8984 29.5896 10.9969 29.6139C11.0953 29.6381 11.1943 29.6607 11.2938 29.6818C11.4182 29.7088 11.5426 29.7336 11.667 29.7563C11.7919 29.7796 11.9172 29.8007 12.0428 29.8195L12.1942 29.8418C12.2421 29.8488 12.2901 29.8553 12.3386 29.8611H12.352L12.5002 29.8793L12.6494 29.8957L12.8019 29.9104C12.9037 29.9197 13.0055 29.9273 13.1079 29.9344L13.2966 29.9455H13.3147C13.376 29.9484 13.4378 29.9514 13.4997 29.9531H13.5508C13.5876 29.9531 13.6239 29.9531 13.6606 29.9561H13.6868C13.7721 29.9561 13.8579 29.959 13.9437 29.959H13.949C14.1712 29.959 14.3926 29.9529 14.6132 29.9408C14.7167 29.9361 14.8195 29.9291 14.9224 29.9209H14.9517C15.0051 29.9162 15.0584 29.9121 15.1117 29.9068L15.2764 29.8904C15.3862 29.8793 15.496 29.8658 15.6053 29.8512C15.7146 29.8365 15.8233 29.8201 15.9321 29.8031C16.0408 29.7861 16.1496 29.7668 16.2572 29.7445C16.3105 29.7346 16.3638 29.724 16.4172 29.7129L16.5771 29.6795L16.737 29.6438L16.9097 29.6027L17.0424 29.5693C17.0552 29.5664 17.0686 29.5635 17.0814 29.5594H17.0872C17.1304 29.5488 17.1736 29.5371 17.2162 29.5254C17.2695 29.5113 17.3228 29.4967 17.3762 29.4814L17.5361 29.4352C17.6427 29.4047 17.7473 29.3719 17.85 29.3367C17.9034 29.3197 17.9567 29.3021 18.0062 29.284C18.0558 29.2658 18.1102 29.2482 18.1619 29.2295C18.2136 29.2107 18.2653 29.1926 18.317 29.1709C18.4199 29.1334 18.5228 29.0936 18.6246 29.0537L18.7776 28.991C18.8309 28.9699 18.8789 28.9482 18.9295 28.9266C19.0308 28.8826 19.131 28.8375 19.2318 28.7912C19.3069 28.7566 19.3816 28.7209 19.4562 28.6846C19.5308 28.6482 19.6044 28.6113 19.6785 28.5732L19.8123 28.5041C19.8544 28.4824 19.896 28.4602 19.9376 28.4373C20.0175 28.3939 20.0973 28.3498 20.1769 28.3049C21.3905 27.6162 22.5028 26.7307 23.4766 25.6781L23.709 25.4273L23.7154 25.4209L23.7336 25.401L23.7341 25.4086ZM5.24292 25.35C5.28024 25.302 5.31808 25.2539 5.35593 25.2064L5.36499 25.1953L5.36766 25.1924C5.38099 25.1754 5.39485 25.1578 5.40871 25.1414L5.4924 25.0395C5.52065 25.0055 5.5489 24.9715 5.57769 24.9381L5.59155 24.9217L5.59581 24.9164C5.62407 24.8824 5.65232 24.8496 5.68111 24.8168C5.72428 24.767 5.768 24.7172 5.81224 24.6686C5.83943 24.6381 5.86555 24.61 5.89487 24.5783C5.92419 24.5467 5.94444 24.5232 5.9695 24.4975L6.00041 24.4641C6.0276 24.4354 6.05372 24.4055 6.08197 24.3791L6.09317 24.3674L6.0969 24.3633L6.11343 24.3463C6.14328 24.3147 6.17313 24.2842 6.20352 24.2543L6.26002 24.1957L6.27175 24.1846C6.3 24.1553 6.32932 24.126 6.35811 24.099L6.42367 24.0357C6.45353 24.0064 6.48391 23.9771 6.5143 23.9502L6.59106 23.8781C6.61718 23.8535 6.64436 23.8289 6.67102 23.8049C6.69767 23.7809 6.73072 23.751 6.76111 23.7246C6.7835 23.7041 6.80589 23.6842 6.82881 23.666L6.8384 23.6578L6.85173 23.6461C6.87732 23.6232 6.90504 23.601 6.92956 23.5787L6.93542 23.574C6.95603 23.5557 6.97682 23.5381 6.99779 23.5213L7.00845 23.5119L7.06976 23.4609H7.07295L7.07935 23.4557C7.11773 23.4234 7.15611 23.3918 7.19503 23.3613C7.20516 23.3525 7.21582 23.3438 7.22648 23.3361C7.26646 23.3033 7.30644 23.2717 7.34695 23.2406L7.41625 23.1873L7.42531 23.1809L7.5138 23.1135L7.52393 23.1053L7.53673 23.0959L7.56231 23.0777C7.60656 23.0443 7.6508 23.0121 7.69558 22.9799C7.74036 22.9477 7.7814 22.9184 7.82512 22.8885C7.85444 22.868 7.88375 22.8475 7.91361 22.8299L7.9296 22.8188L8.06073 22.7303C8.11404 22.6939 8.17161 22.6576 8.22759 22.6225L8.24678 22.6102H8.24997C8.28143 22.5896 8.31341 22.5703 8.34539 22.5516L8.36618 22.5393L8.38484 22.5275C8.40936 22.5123 8.43388 22.4971 8.45894 22.4824C8.49625 22.4596 8.53357 22.4373 8.57142 22.4156L8.62472 22.3857L8.63219 22.3816L8.65884 22.3664L8.6759 22.3564C8.71641 22.3324 8.75799 22.3102 8.7985 22.2867L8.94297 22.2082L9.01706 22.1684H9.02186L9.03519 22.1613L9.05438 22.1514C9.09702 22.1285 9.1402 22.1068 9.18338 22.0852L9.21217 22.0705C9.26547 22.043 9.32198 22.016 9.37742 21.9897L9.41314 21.9721L9.54534 21.91H9.5496L9.70153 21.842C9.71178 21.8367 9.72228 21.832 9.73298 21.8279H9.73618L9.80228 21.7998L9.87158 21.7705L9.93235 21.7447C9.98565 21.7236 10.0358 21.7025 10.0875 21.6826C10.0992 21.6771 10.1109 21.6725 10.1227 21.6686C10.168 21.6504 10.2138 21.6328 10.2597 21.6164C10.2863 21.6059 10.313 21.5959 10.3401 21.5865C10.3817 21.5707 10.4238 21.5555 10.466 21.5414L10.5193 21.5227L10.5326 21.518L10.5416 21.515C10.595 21.498 10.6429 21.4805 10.6941 21.4641C10.7192 21.4553 10.7447 21.4471 10.7703 21.4395L10.8471 21.4154C10.9057 21.3973 10.9638 21.3797 11.0225 21.3627L11.1062 21.3387L11.1174 21.3357L11.2096 21.31L11.3018 21.2854L11.329 21.2783L11.4106 21.2572L11.4916 21.2373L11.5284 21.2279H11.5396L11.6147 21.2104L11.6904 21.1934C11.7171 21.1867 11.7437 21.1809 11.7704 21.1758C11.8093 21.167 11.8487 21.1588 11.8877 21.1512L11.9532 21.1377L12.0817 21.0938L12.1766 21.0768L12.2715 21.0604L12.3408 21.0492L12.4106 21.0387H12.4479L12.5444 21.0252H12.578C12.6164 21.0199 12.6542 21.0146 12.6926 21.0105C12.731 21.0064 12.7715 21.0006 12.8109 20.9965L12.8813 20.9766C12.9282 20.9713 12.9751 20.9672 13.022 20.9625L13.1676 20.9508L13.2832 20.9426H13.3232L13.4581 20.935H13.4981L13.6159 20.9303H14.2476C14.2923 20.9303 14.3371 20.9303 14.3819 20.935H14.3995C14.4395 20.935 14.4789 20.9385 14.5184 20.9402H14.5221L14.6378 20.9479L14.6943 20.9514C14.7289 20.9514 14.763 20.9561 14.7977 20.9596H14.8078L14.9091 20.9684H14.9139C14.9635 20.9725 15.0125 20.9777 15.0616 20.983H15.0818L15.1351 20.9889L15.2092 20.9977H15.23L15.3478 21.0123H15.3601L15.3814 21.0152L15.4304 21.0223L15.5477 21.0398L15.6282 21.0527L15.6485 21.0563L15.7439 21.0727L15.9038 21.102C15.9545 21.1119 16.0056 21.1219 16.0563 21.133C16.1224 21.1471 16.189 21.1611 16.2551 21.1764C16.3212 21.1916 16.3868 21.2074 16.4529 21.2238L16.6261 21.2689L16.6837 21.2848L16.7055 21.2906L16.7988 21.3176C16.8745 21.3393 16.9502 21.3621 17.0254 21.3855C17.0787 21.402 17.132 21.4178 17.1853 21.4354L17.2157 21.4453L17.2813 21.467C17.325 21.4811 17.3682 21.4963 17.4113 21.5109L17.4689 21.5309L17.5755 21.5689L17.6075 21.5807L17.7344 21.6287H17.7392L17.8213 21.6604L17.8874 21.6873C17.9305 21.7043 17.9732 21.7219 18.0164 21.74C18.0745 21.7641 18.132 21.7887 18.1896 21.8139L18.2152 21.825L18.2413 21.8367L18.2946 21.8602L18.3101 21.8672L18.3186 21.8713L18.3325 21.8771C18.3618 21.8895 18.3917 21.9035 18.4204 21.9176C18.4657 21.9381 18.5095 21.9598 18.5542 21.9814L18.5676 21.9879L18.5905 21.999L18.6305 22.0184L18.6699 22.0383C18.6768 22.0418 18.6843 22.0447 18.6912 22.0488L18.7749 22.091L18.7915 22.0998C18.8058 22.1068 18.8202 22.1139 18.8346 22.1221H18.8373C18.8831 22.1461 18.9301 22.1701 18.9754 22.1953L19.0244 22.2223L19.0367 22.2287C19.0745 22.2492 19.1124 22.2697 19.1497 22.2914L19.1699 22.3031H19.1737C19.1806 22.3066 19.1874 22.3105 19.1939 22.3148L19.2142 22.3266L19.2312 22.3359C19.2723 22.3588 19.3139 22.3834 19.3544 22.4074L19.3986 22.4338C19.447 22.4623 19.4949 22.4916 19.5426 22.5217C19.5504 22.5259 19.5581 22.5306 19.5655 22.5357C19.6188 22.5686 19.6721 22.6025 19.7254 22.6371C19.7355 22.643 19.7451 22.65 19.7552 22.6564C19.7968 22.6834 19.8384 22.7104 19.8795 22.7385C19.9093 22.7584 19.9392 22.7783 19.969 22.7971L19.9802 22.8047L20.0516 22.8539L20.0591 22.8592H20.0639L20.0975 22.8826L20.1204 22.899C20.1652 22.9301 20.2105 22.9623 20.2547 22.9951C20.2675 23.0041 20.2803 23.0135 20.2931 23.0232C20.3299 23.0496 20.3656 23.0766 20.3997 23.1041L20.4051 23.1082C20.4328 23.1289 20.4605 23.15 20.4882 23.1715C20.5117 23.1891 20.5357 23.2072 20.5591 23.2266C20.5826 23.2459 20.6151 23.2699 20.6428 23.2922C20.6705 23.3145 20.7132 23.3508 20.7494 23.3766L20.7633 23.3883L20.8267 23.4404C20.8747 23.4797 20.9227 23.5201 20.9701 23.5611C21.0085 23.5934 21.0463 23.6262 21.0842 23.6596L21.1466 23.7147L21.2558 23.8137C21.2708 23.8266 21.2857 23.84 21.3001 23.8541C21.3326 23.8834 21.3641 23.9127 21.3955 23.9438L21.404 23.952H21.4067L21.4104 23.9555L21.4472 23.99C21.468 24.0094 21.4883 24.0299 21.5091 24.0486L21.5261 24.0656C21.5629 24.1002 21.5997 24.1365 21.6359 24.1729C21.7241 24.26 21.8106 24.3492 21.8955 24.4406C21.924 24.4707 21.9522 24.5012 21.9803 24.532C22.0149 24.5689 22.0491 24.6064 22.0832 24.6445C22.1798 24.7516 22.2745 24.8609 22.3673 24.9727C22.3732 24.9797 22.379 24.9861 22.3844 24.9932C22.4137 25.0283 22.443 25.0635 22.4718 25.0992L22.475 25.1027L22.5054 25.1408C22.5512 25.1994 22.596 25.2545 22.6408 25.3119C17.7792 30.2982 10.12 30.3029 5.24292 25.3482V25.35Z" fill="#F9C80E"/>
<path d="M17.0542 20.966L13.8723 25.4561L10.8407 20.918C11.8295 20.6282 12.8484 20.4813 13.8717 20.4809C14.948 20.478 16.0193 20.6413 17.0542 20.966Z" fill="#F9C80E"/>
<path d="M17.1645 20.5435C16.1069 20.2121 15.0125 20.0435 13.9128 20.0426H13.8712C12.8129 20.0429 11.7592 20.195 10.7367 20.4949L10.1711 20.6607L10.1941 20.6953L10.6957 21.4453L13.8621 26.185L17.2173 21.45L17.7322 20.7234L17.1645 20.5435ZM11.5198 21.1922C12.2932 21.0121 13.0817 20.9212 13.8723 20.9209H13.9176C14.7406 20.9226 15.561 21.0242 16.3638 21.2238L13.8813 24.7266L11.531 21.2109L11.5198 21.1922Z" fill="#F9C80E"/>
</g>
<defs>
<clipPath id="clip0">
<rect width="27.2932" height="30" fill="white" transform="translate(0.300781)"/>
</clipPath>
</defs>
</svg>
